<svg width="26" height="23" viewBox="0 0 26 23" fill="none" xmlns="http://www.w3.org/2000/svg">
<path d="M25.0628 12.0005C25.0629 10.9091 24.7533 9.84002 24.1699 8.91757C23.5865 7.99512 22.7534 7.25714 21.7673 6.78938V5.82131C21.7665 4.75965 21.424 3.72644 20.7904 2.87457C20.1569 2.0227 19.2659 1.39743 18.2493 1.09131C17.2327 0.785187 16.1446 0.814468 15.146 1.17482C14.1474 1.53517 13.2913 2.20745 12.7044 3.09216C12.1176 2.20745 11.2615 1.53517 10.2629 1.17482C9.26424 0.814468 8.17613 0.785187 7.15957 1.09131C6.143 1.39743 5.252 2.0227 4.61842 2.87457C3.98484 3.72644 3.64234 4.75965 3.64161 5.82131V6.78938C2.65534 7.25703 1.82204 7.99496 1.23853 8.91742C0.655016 9.83988 0.345263 10.909 0.345263 12.0005C0.345263 13.092 0.655016 14.1611 1.23853 15.0836C1.82204 16.0061 2.65534 16.744 3.64161 17.2116V17.3558C3.64234 18.4175 3.98484 19.4507 4.61842 20.3026C5.252 21.1544 6.143 21.7797 7.15957 22.0858C8.17613 22.3919 9.26424 22.3627 10.2629 22.0023C11.2615 21.6419 12.1176 20.9697 12.7044 20.085C13.2913 20.9697 14.1474 21.6419 15.146 22.0023C16.1446 22.3627 17.2327 22.3919 18.2493 22.0858C19.2659 21.7797 20.1569 21.1544 20.7904 20.3026C21.424 19.4507 21.7665 18.4175 21.7673 17.3558V17.2116C22.7526 16.7429 23.5851 16.0047 24.1683 15.0824C24.7515 14.1602 25.0617 13.0917 25.0628 12.0005V12.0005ZM8.58497 20.6514C7.77189 20.6509 6.98768 20.3499 6.38314 19.8062C5.77859 19.2624 5.39638 18.5144 5.30999 17.706C5.5757 17.7478 5.84431 17.7685 6.11329 17.7678H6.93718C7.15569 17.7678 7.36525 17.681 7.51976 17.5264C7.67427 17.3719 7.76107 17.1624 7.76107 16.9439C7.76107 16.7254 7.67427 16.5158 7.51976 16.3613C7.36525 16.2068 7.15569 16.12 6.93718 16.12H6.11329C5.14245 16.1183 4.2034 15.7738 3.46179 15.1473C2.72018 14.5208 2.22368 13.6525 2.05989 12.6955C1.89609 11.7386 2.07552 10.7546 2.56653 9.91708C3.05753 9.07956 3.82855 8.44237 4.74356 8.11791C4.90367 8.05893 5.04184 7.95227 5.13944 7.81231C5.23704 7.67236 5.28938 7.50584 5.28939 7.33521V5.82131C5.28939 4.94727 5.6366 4.10903 6.25464 3.49099C6.87268 2.87295 7.71093 2.52574 8.58497 2.52574C9.45901 2.52574 10.2972 2.87295 10.9153 3.49099C11.5333 4.10903 11.8805 4.94727 11.8805 5.82131V13.6792C10.9785 12.8606 9.80306 12.4087 8.58497 12.4125C8.36646 12.4125 8.1569 12.4993 8.00239 12.6538C7.84788 12.8083 7.76107 13.0178 7.76107 13.2363C7.76107 13.4549 7.84788 13.6644 8.00239 13.8189C8.1569 13.9734 8.36646 14.0602 8.58497 14.0602C9.45901 14.0602 10.2972 14.4075 10.9153 15.0255C11.5333 15.6435 11.8805 16.4818 11.8805 17.3558C11.8805 18.2299 11.5333 19.0681 10.9153 19.6861C10.2972 20.3042 9.45901 20.6514 8.58497 20.6514ZM19.2956 16.12H18.4717C18.2532 16.12 18.0436 16.2068 17.8891 16.3613C17.7346 16.5158 17.6478 16.7254 17.6478 16.9439C17.6478 17.1624 17.7346 17.3719 17.8891 17.5264C18.0436 17.681 18.2532 17.7678 18.4717 17.7678H19.2956C19.5646 17.7685 19.8332 17.7478 20.0989 17.706C20.0312 18.3393 19.7814 18.9395 19.3798 19.4338C18.9782 19.9282 18.4419 20.2956 17.8358 20.4916C17.2297 20.6875 16.5799 20.7036 15.9649 20.538C15.3498 20.3723 14.796 20.032 14.3703 19.5581C13.9447 19.0843 13.6654 18.4973 13.5664 17.868C13.4674 17.2388 13.5529 16.5944 13.8125 16.0127C14.0721 15.4311 14.4946 14.9371 15.0291 14.5906C15.5635 14.2441 16.1869 14.0599 16.8239 14.0602C17.0424 14.0602 17.252 13.9734 17.4065 13.8189C17.561 13.6644 17.6478 13.4549 17.6478 13.2363C17.6478 13.0178 17.561 12.8083 17.4065 12.6538C17.252 12.4993 17.0424 12.4125 16.8239 12.4125C15.6058 12.4087 14.4303 12.8606 13.5283 13.6792V5.82131C13.5283 4.94727 13.8755 4.10903 14.4936 3.49099C15.1116 2.87295 15.9499 2.52574 16.8239 2.52574C17.6979 2.52574 18.5362 2.87295 19.1542 3.49099C19.7723 4.10903 20.1195 4.94727 20.1195 5.82131V7.33521C20.1195 7.50584 20.1718 7.67236 20.2694 7.81231C20.367 7.95227 20.5052 8.05893 20.6653 8.11791C21.5803 8.44237 22.3513 9.07956 22.8423 9.91708C23.3333 10.7546 23.5128 11.7386 23.349 12.6955C23.1852 13.6525 22.6887 14.5208 21.9471 15.1473C21.2055 15.7738 20.2664 16.1183 19.2956 16.12V16.12ZM5.70134 11.5886C5.48283 11.5886 5.27327 11.5018 5.11876 11.3472C4.96425 11.1927 4.87745 10.9832 4.87745 10.7647C4.87745 10.5462 4.96425 10.3366 5.11876 10.1821C5.27327 10.0276 5.48283 9.94077 5.70134 9.94077C6.24678 9.93807 6.76911 9.72019 7.1548 9.3345C7.54049 8.94881 7.75837 8.42648 7.76107 7.88104V7.05715C7.76107 6.83864 7.84788 6.62908 8.00239 6.47457C8.1569 6.32006 8.36646 6.23326 8.58497 6.23326C8.80348 6.23326 9.01304 6.32006 9.16755 6.47457C9.32206 6.62908 9.40886 6.83864 9.40886 7.05715V7.88104C9.40886 8.86434 9.01825 9.80736 8.32295 10.5027C7.62766 11.1979 6.68463 11.5886 5.70134 11.5886V11.5886ZM20.5314 10.7647C20.5314 10.9832 20.4446 11.1927 20.2901 11.3472C20.1356 11.5018 19.926 11.5886 19.7075 11.5886C18.7242 11.5886 17.7812 11.1979 17.0859 10.5027C16.3906 9.80736 16 8.86434 16 7.88104V7.05715C16 6.83864 16.0868 6.62908 16.2413 6.47457C16.3958 6.32006 16.6054 6.23326 16.8239 6.23326C17.0424 6.23326 17.252 6.32006 17.4065 6.47457C17.561 6.62908 17.6478 6.83864 17.6478 7.05715V7.88104C17.6505 8.42648 17.8684 8.94881 18.2541 9.3345C18.6398 9.72019 19.1621 9.93807 19.7075 9.94077C19.926 9.94077 20.1356 10.0276 20.2901 10.1821C20.4446 10.3366 20.5314 10.5462 20.5314 10.7647Z" fill="#471515"/>
</svg>
