<svg width="27" height="27" viewBox="0 0 27 27" fill="none" xmlns="http://www.w3.org/2000/svg">
<g clip-path="url(#clip0_135_15)">
<path d="M8.76102 6.1735V2.87792C8.76102 2.65941 8.84783 2.44985 9.00234 2.29534C9.15685 2.14083 9.36641 2.05403 9.58492 2.05403C9.80343 2.05403 10.013 2.14083 10.1675 2.29534C10.322 2.44985 10.4088 2.65941 10.4088 2.87792V6.1735C10.4088 6.39201 10.322 6.60157 10.1675 6.75608C10.013 6.91059 9.80343 6.99739 9.58492 6.99739C9.36641 6.99739 9.15685 6.91059 9.00234 6.75608C8.84783 6.60157 8.76102 6.39201 8.76102 6.1735ZM12.8805 6.99739C13.099 6.99739 13.3086 6.91059 13.4631 6.75608C13.6176 6.60157 13.7044 6.39201 13.7044 6.1735V2.87792C13.7044 2.65941 13.6176 2.44985 13.4631 2.29534C13.3086 2.14083 13.099 2.05403 12.8805 2.05403C12.662 2.05403 12.4524 2.14083 12.2979 2.29534C12.1434 2.44985 12.0566 2.65941 12.0566 2.87792V6.1735C12.0566 6.39201 12.1434 6.60157 12.2979 6.75608C12.4524 6.91059 12.662 6.99739 12.8805 6.99739ZM16.1761 6.99739C16.3946 6.99739 16.6041 6.91059 16.7586 6.75608C16.9132 6.60157 17 6.39201 17 6.1735V2.87792C17 2.65941 16.9132 2.44985 16.7586 2.29534C16.6041 2.14083 16.3946 2.05403 16.1761 2.05403C15.9576 2.05403 15.748 2.14083 15.5935 2.29534C15.439 2.44985 15.3522 2.65941 15.3522 2.87792V6.1735C15.3522 6.39201 15.439 6.60157 15.5935 6.75608C15.748 6.91059 15.9576 6.99739 16.1761 6.99739ZM26.0628 12.7646V13.5885C26.0622 14.6361 25.6625 15.6441 24.9451 16.4075C24.2276 17.1709 23.2463 17.6322 22.2008 17.6977C21.6333 19.2849 20.6773 20.7047 19.4201 21.8275H21.9433C22.1618 21.8275 22.3714 21.9143 22.5259 22.0688C22.6804 22.2233 22.7672 22.4328 22.7672 22.6514C22.7672 22.8699 22.6804 23.0794 22.5259 23.2339C22.3714 23.3884 22.1618 23.4752 21.9433 23.4752H3.81767C3.59916 23.4752 3.3896 23.3884 3.23509 23.2339C3.08058 23.0794 2.99377 22.8699 2.99377 22.6514C2.99377 22.4328 3.08058 22.2233 3.23509 22.0688C3.3896 21.9143 3.59916 21.8275 3.81767 21.8275H6.34084C5.29092 20.898 4.44981 19.7566 3.8729 18.4785C3.29599 17.2005 2.99637 15.8147 2.99377 14.4124V9.46907C2.99377 9.25056 3.08058 9.041 3.23509 8.88649C3.3896 8.73198 3.59916 8.64517 3.81767 8.64517H21.9433C23.0359 8.64517 24.0837 9.07919 24.8562 9.85174C25.6288 10.6243 26.0628 11.6721 26.0628 12.7646ZM21.1194 10.293H4.64156V14.4124C4.64491 15.9591 5.08192 17.4738 5.90295 18.7845C6.72398 20.0953 7.89612 21.1495 9.28626 21.8275H16.4747C17.5132 21.32 18.4337 20.6005 19.177 19.7153C19.9202 18.8301 20.4697 17.799 20.7899 16.6884C20.8014 16.6697 20.8084 16.6485 20.8105 16.6266C21.0175 15.9069 21.1215 15.1614 21.1194 14.4124V10.293ZM24.415 12.7646C24.4144 12.254 24.2557 11.7561 23.9606 11.3393C23.6656 10.9225 23.2486 10.6074 22.7672 10.4371V14.4124C22.7678 14.9299 22.7265 15.4465 22.6436 15.9572C23.1548 15.8062 23.6035 15.494 23.9227 15.0671C24.2419 14.6402 24.4146 14.1216 24.415 13.5885V12.7646Z" fill="#153047"/>
</g>
<defs>
<clipPath id="clip0_135_15">
<rect width="26.3646" height="26.3646" fill="white" transform="translate(0.522095 0.40625)"/>
</clipPath>
</defs>
</svg>
